<svg width="16" height="8" viewBox="0 0 16 8" fill="none" xmlns="http://www.w3.org/2000/svg">
<path d="M14.8967 0.179359L8.35594 6.55527L1.81513 0.179359C1.69827 0.0652126 1.54139 0.00130859 1.37803 0.00130859C1.21467 0.00130859 1.05779 0.0652126 0.940929 0.179359C0.884345 0.234801 0.839392 0.300975 0.808703 0.374008C0.778014 0.447041 0.762207 0.525463 0.762207 0.604682C0.762207 0.6839 0.778014 0.762322 0.808703 0.835355C0.839392 0.908388 0.884345 0.974563 0.940929 1.03L7.89921 7.81423C8.0214 7.93334 8.1853 8 8.35594 8C8.52658 8 8.69047 7.93334 8.81267 7.81423L15.7709 1.03131C15.8279 0.97583 15.8732 0.909493 15.9042 0.836218C15.9351 0.762943 15.951 0.684216 15.951 0.604682C15.951 0.525148 15.9351 0.44642 15.9042 0.373145C15.8732 0.29987 15.8279 0.233533 15.7709 0.17805C15.6541 0.0639034 15.4972 0 15.3338 0C15.1705 0 15.0136 0.0639034 14.8967 0.17805V0.179359Z" fill="white"/>
</svg>
