<svg width="17" height="16" viewBox="0 0 17 16" fill="none" xmlns="http://www.w3.org/2000/svg">
<path d="M12.6025 10.3185H11.8615L11.5989 10.0653C12.1851 9.38432 12.6135 8.58221 12.8534 7.71636C13.0934 6.8505 13.139 5.94231 12.987 5.05676C12.5462 2.44933 10.3702 0.367141 7.74403 0.0482465C6.82076 -0.0685572 5.88299 0.027398 5.0025 0.328769C4.12201 0.630141 3.32214 1.12894 2.66408 1.787C2.00602 2.44506 1.50722 3.24494 1.20584 4.12543C0.904473 5.00592 0.808518 5.94368 0.925322 6.86696C1.24422 9.49315 3.32641 11.6691 5.93384 12.11C6.81938 12.2619 7.72758 12.2163 8.59343 11.9764C9.45929 11.7364 10.2614 11.308 10.9424 10.7218L11.1956 10.9844V11.7254L15.1818 15.7116C15.5663 16.0961 16.1947 16.0961 16.5793 15.7116C16.9638 15.327 16.9638 14.6986 16.5793 14.3141L12.6025 10.3185ZM6.97494 10.3185C4.6395 10.3185 2.75427 8.43329 2.75427 6.09786C2.75427 3.76243 4.6395 1.8772 6.97494 1.8772C9.31037 1.8772 11.1956 3.76243 11.1956 6.09786C11.1956 8.43329 9.31037 10.3185 6.97494 10.3185Z" fill="#808080" fill-opacity="0.55"/>
</svg>
