<svg width="17" height="16" viewBox="0 0 17 16" fill="none" xmlns="http://www.w3.org/2000/svg">
<path d="M12.2009 10.3185H11.46L11.1974 10.0653C11.7835 9.38432 12.2119 8.58221 12.4519 7.71636C12.6919 6.8505 12.7375 5.94231 12.5855 5.05676C12.1447 2.44933 9.96867 0.367141 7.34248 0.0482465C6.41921 -0.0685572 5.48144 0.027398 4.60095 0.328769C3.72046 0.630141 2.92059 1.12894 2.26253 1.787C1.60447 2.44506 1.10567 3.24494 0.804294 4.12543C0.502923 5.00592 0.406968 5.94368 0.523771 6.86696C0.842666 9.49315 2.92486 11.6691 5.53229 12.11C6.41783 12.2619 7.32603 12.2163 8.19188 11.9764C9.05774 11.7364 9.85984 11.308 10.5408 10.7218L10.794 10.9844V11.7254L14.7802 15.7116C15.1648 16.0961 15.7932 16.0961 16.1777 15.7116C16.5623 15.327 16.5623 14.6986 16.1777 14.3141L12.2009 10.3185ZM6.57339 10.3185C4.23795 10.3185 2.35272 8.43329 2.35272 6.09786C2.35272 3.76243 4.23795 1.8772 6.57339 1.8772C8.90882 1.8772 10.794 3.76243 10.794 6.09786C10.794 8.43329 8.90882 10.3185 6.57339 10.3185Z" fill="white"/>
</svg>
